<?xml version="1.0" encoding="utf-8"?>
<!-- Generator: Adobe Illustrator 21.0.0, SVG Export Plug-In . SVG Version: 6.00 Build 0)  -->
<svg version="1.1" id="Layer_1" xmlns="http://www.w3.org/2000/svg" xmlns:xlink="http://www.w3.org/1999/xlink" x="0px" y="0px"
	 width="512px" height="512px" viewBox="0 0 512 512" style="enable-background:new 0 0 512 512;" xml:space="preserve">
<style type="text/css">
	.st0{fill:#2568BD;}
	.st1{fill:#3FA0E1;}
	.st2{fill:#F5F5F5;}
	.st3{fill:#E24130;}
	.st4{fill:#E6E6E6;}
</style>
<circle class="st0" cx="256" cy="256" r="256"/>
<path class="st1" d="M256,489.2C127.4,489.2,22.7,384.6,22.7,256S127.4,22.8,256,22.8S489.3,127.4,489.3,256S384.6,489.2,256,489.2z
	"/>
<g>
	<path class="st2" d="M256,170.7c-47.1,0-85.3,38.3-85.3,85.3c0,47.1,38.3,85.3,85.3,85.3s85.3-38.3,85.3-85.3
		C341.3,208.9,303.1,170.7,256,170.7z M256,318.6c-34.5,0-62.6-28.1-62.6-62.6s28.1-62.6,62.6-62.6s62.6,28.1,62.6,62.6
		S290.5,318.6,256,318.6z"/>
	<polygon class="st2" points="256,108.1 238.9,176.4 256,176.4 273.1,176.4 	"/>
	<polygon class="st2" points="256,403.9 238.9,335.6 256,335.6 273.1,335.6 	"/>
	<polygon class="st2" points="108.1,256 176.4,273.1 176.4,256 176.4,238.9 	"/>
	<polygon class="st2" points="403.9,256 335.6,273.1 335.6,256 335.6,238.9 	"/>
</g>
<g>
	<polygon class="st3" points="410.3,91.8 234,232.6 256,256 278,279.4 	"/>
	<polygon class="st4" points="101.7,420.2 234,232.6 256,256 278,279.4 	"/>
</g>
<g>
	<path class="st4" d="M298.2,38.1l7.7,1.7l-9.8,46.5l-7.7-1.7L298.2,38.1L298.2,38.1z"/>
	<path class="st4" d="M205.9,472.3l9.9-46.5l7.7,1.7l-9.9,46.5L205.9,472.3z"/>
	<path class="st4" d="M327,45.6l-7.2,22.7l-7.6-2.4l7.2-22.7L327,45.6z"/>
	<path class="st4" d="M184.9,466.4l7.2-22.7l7.6,2.4l-7.2,22.7L184.9,466.4z"/>
	<path class="st4" d="M347.1,53.7l-18.8,43.7l-7.3-3.1l18.8-43.7L347.1,53.7z"/>
	<path class="st4" d="M164.6,458.4l18.8-43.7l7.3,3.1l-18.8,43.7L164.6,458.4z"/>
	<path class="st4" d="M366.7,63.6l-11.5,20.8l-7-3.8l11.5-20.8L366.7,63.6L366.7,63.6z"/>
	<path class="st4" d="M156.8,427.7l7,3.8l-11.5,20.8l-7-3.8L156.8,427.7z"/>
	<path class="st4" d="M455,157.5l-21.1,11l-3.6-7l21.1-11L455,157.5z"/>
	<path class="st4" d="M57,354.6l21.1-11l3.6,7l-21.1,11L57,354.6z"/>
	<path class="st4" d="M416.5,187.7l44.3-17.7l3,7.3L419.5,195L416.5,187.7z"/>
	<path class="st4" d="M95.4,324.4L51.2,342l-3-7.3L92.5,317L95.4,324.4z"/>
	<path class="st4" d="M470.4,198.2l-22.9,6.6l-2.2-7.6l22.9-6.6L470.4,198.2z"/>
	<path class="st4" d="M41.6,313.8l22.9-6.6l2.2,7.6l-22.9,6.6L41.6,313.8z"/>
	<path class="st4" d="M475,219.5l-46.8,8.7l-1.5-7.8l46.8-8.7L475,219.5z"/>
	<path class="st4" d="M37,292.6l46.8-8.7l1.5,7.8l-46.8,8.7L37,292.6z"/>
	<path class="st4" d="M472.4,306l-46.6-9.9l1.7-7.7l46.6,9.9L472.4,306z"/>
	<path class="st4" d="M39.6,206.1l46.6,9.9l-1.7,7.7l-46.6-9.9L39.6,206.1z"/>
	<path class="st4" d="M466.4,327.1l-22.7-7.2l2.4-7.6l22.7,7.2L466.4,327.1z"/>
	<path class="st4" d="M45.5,185.1l22.7,7.2l-2.4,7.6l-22.7-7.2L45.5,185.1z"/>
	<path class="st4" d="M458.5,347.3l-43.7-18.8l3.2-7.3l43.7,18.8L458.5,347.3L458.5,347.3z"/>
	<path class="st4" d="M97.3,183.6l-3.2,7.3l-43.7-18.8l3.2-7.3L97.3,183.6z"/>
	<path class="st4" d="M448.4,366.7l-20.8-11.5l3.8-6.9l20.8,11.5L448.4,366.7L448.4,366.7z"/>
	<path class="st4" d="M84.2,156.9l-3.8,6.9l-20.8-11.4l3.8-6.9L84.2,156.9z"/>
	<path class="st4" d="M343.7,433.9l7.1-3.6l11,21.1l-7.1,3.6L343.7,433.9z"/>
	<path class="st4" d="M168.3,78.2l-7.1,3.6l-10.9-21.1l7.1-3.6L168.3,78.2z"/>
	<path class="st4" d="M334.6,463.7l-17.6-44.2l7.4-3l17.6,44.2L334.6,463.7z"/>
	<path class="st4" d="M177.3,48.3L195,92.5l-7.4,3l-17.6-44.1L177.3,48.3z"/>
	<path class="st4" d="M307.2,447.5l7.6-2.2l6.5,22.9l-7.6,2.2L307.2,447.5z"/>
	<path class="st4" d="M204.7,64.5l-7.6,2.2l-6.5-22.9l7.6-2.2L204.7,64.5z"/>
	<path class="st4" d="M292.5,475l-8.7-46.8l7.8-1.5l8.7,46.8L292.5,475L292.5,475z"/>
	<path class="st4" d="M228,83.8l-7.8,1.5l-8.6-46.9l7.8-1.5L228,83.8z"/>
</g>
<path class="st4" d="M387.6,77.2l6.3,4.8l-28.8,37.8l-6.3-4.8L387.6,77.2L387.6,77.2z"/>
<path class="st4" d="M118,430l28.8-37.8l6.3,4.8l-28.8,37.8L118,430z"/>
<path class="st4" d="M425.1,112.3l-35.7,31.4l-5.2-6l35.7-31.4L425.1,112.3z"/>
<path class="st4" d="M86.7,399.7l35.7-31.4l5.2,6l-35.7,31.4L86.7,399.7z"/>
<path class="st4" d="M438.5,129.6l-19.3,13.9l-4.6-6.4l19.3-13.9L438.5,129.6L438.5,129.6z"/>
<path class="st4" d="M92.8,368.7l4.6,6.4L78.1,389l-4.6-6.4L92.8,368.7z"/>
<path class="st4" d="M478,252.3l-23.8,0.9l-0.3-7.9l23.8-0.9L478,252.3z"/>
<path class="st4" d="M34,259.8l23.8-0.9l0.3,7.9l-23.9,0.9L34,259.8z"/>
<path class="st4" d="M430.3,263l47.5,3l-0.4,7.9l-47.5-3L430.3,263z"/>
<path class="st4" d="M81.5,249L34,246l0.4-7.9l47.5,3L81.5,249z"/>
<path class="st4" d="M430.1,393.9L392.2,365l4.9-6.3l37.8,28.9L430.1,393.9z"/>
<path class="st4" d="M81.9,118.2l37.8,28.8l-4.9,6.3l-37.8-28.9L81.9,118.2z"/>
<path class="st4" d="M415.7,410.4l-17.4-16.2l5.4-5.8l17.4,16.2L415.7,410.4z"/>
<path class="st4" d="M96.2,101.8l17.4,16.2l-5.4,5.8l-17.4-16.2L96.2,101.8z"/>
<path class="st4" d="M399.7,425.2l-31.5-35.7l5.9-5.2l31.5,35.7L399.7,425.2L399.7,425.2z"/>
<path class="st4" d="M143.6,122.6l-5.9,5.2l-31.5-35.7l5.9-5.2L143.6,122.6z"/>
<path class="st4" d="M382.4,438.5l-13.8-19.3l6.4-4.6l13.8,19.3L382.4,438.5L382.4,438.5z"/>
<path class="st4" d="M143.2,92.9l-6.4,4.6l-13.8-19.3l6.4-4.6L143.2,92.9z"/>
<path class="st4" d="M259,454.2l7.9-0.3l0.8,23.8l-7.9,0.3L259,454.2z"/>
<path class="st4" d="M253,57.8l-7.9,0.3l-0.8-23.8l7.9-0.3L253,57.8z"/>
<path class="st4" d="M237.9,477.3l3.1-47.5l7.9,0.5l-3,47.5L237.9,477.3z"/>
<path class="st4" d="M274,34.6l-3,47.5l-7.9-0.5l3-47.4L274,34.6z"/>
</svg>
